PathFileType	4	(X/Y/Z)	Kaydara																																																																																																																									
DataRate	CameraRate	NumFrames	NumMarkers	Units	OrigDataRate	OrigDataStartFrame	OrigNumFrames																																																																																																																					
30	30	4	41	mm	30	133	151																																																																																																																					
Frame#	Time	SALE_LFHD			SALE_RFHD			SALE_LBHD			SALE_RBHD			SALE_LFTShould			SALE_RFTShould			SALE_LRRShould			SALE_RRRShould			SALE_T10			SALE_STRN			SALE_TRUN			SALE_LSHO			SALE_LUPA			SALE_LELB			SALE_LFRM			SALE_LWRA			SALE_LWRB			SALE_LFIN			SALE_RSHO			SALE_RUPA			SALE_RELB			SALE_RFRM			SALE_RWRB			SALE_RFIN			SALE_LFWT			SALE_RFWT			SALE_LBWT			SALE_RBWT			SALE_LTHI			SALE_LKNE			SALE_RWRA			SALE_LSHN			SALE_LANK			SALE_LHEE			SALE_LTOE			SALE_RTHI			SALE_RKNE			SALE_RSHN			SALE_RANK			SALE_RHEE			SALE_RTOE		
		X1	Y1	Z1	X2	Y2	Z2	X3	Y3	Z3	X4	Y4	Z4	X5	Y5	Z5	X6	Y6	Z6	X7	Y7	Z7	X8	Y8	Z8	X9	Y9	Z9	X10	Y10	Z10	X11	Y11	Z11	X12	Y12	Z12	X13	Y13	Z13	X14	Y14	Z14	X15	Y15	Z15	X16	Y16	Z16	X17	Y17	Z17	X18	Y18	Z18	X19	Y19	Z19	X20	Y20	Z20	X21	Y21	Z21	X22	Y22	Z22	X23	Y23	Z23	X24	Y24	Z24	X25	Y25	Z25	X26	Y26	Z26	X27	Y27	Z27	X28	Y28	Z28	X29	Y29	Z29	X30	Y30	Z30	X31	Y31	Z31	X32	Y32	Z32	X33	Y33	Z33	X34	Y34	Z34	X35	Y35	Z35	X36	Y36	Z36	X37	Y37	Z37	X38	Y38	Z38	X39	Y39	Z39	X40	Y40	Z40	X41	Y41	Z41
																																																																																																																												
133	4.41	233.19675	1580.07065	1570.55374	105.07663	1579.43573	1599.01962	202.96871	1529.64142	1451.2587	81.11712	1529.99649	1485	242.2867	1303.5939	1592.43713	100.71065	1306.41251	1621.44104	204.61372	1359.17221	1481.50589	62.31944	1371.19888	1519.93744	111.42699	1210.84816	1435.83664	172.75764	1234.07814	1656.93466	173.34238	1148.27393	1698.59787	325.48912	1329.14169	1489.0274	341.24504	1177.87926	1367.50732	334.1111	1087.94945	1305.17548	379.20589	1024.60999	1227.23312	439.39178	867.14111	1189.61166	412.99538	917.174	1136.7659	460.35625	897.2995	1115.64354	-18.22585	1342.80884	1579.73938	-72.83214	1111.48216	1530.58731	-107.6972	1022.03102	1592.31247	-96.18998	930.04883	1661.31744	-94.85212	878.69324	1799.65546	-110.71971	908.6084	1856.11298	275.81715	905.13046	1620.77164	1.81373	873.7471	1602.1463	227.22059	948.37494	1444.85077	47.33083	942.69142	1436.48468	283.96982	590.23354	1608.3197	249.1254	481.73668	1763.40897	-55.08058	938.33908	1820.05737	237.33364	271.89377	1793.35663	231.55306	87.93692	1766.13937	200.82813	35.30378	1698.44894	195.8147	50.29263	1891.24725	22.75937	644.89319	1414.94141	31.9784	466.27281	1485.112	81.44471	302.23614	1345.31723	24.20795	191.6811	1110.77126	58.53216	49.51226	1111.4299	56.69125	222.35714	1026.01341
134	4.443	239.25253	1588.80981	1630.51697	110.76109	1592.96692	1657.79083	208.21245	1532.96204	1513.37326	86.19235	1538.59573	1546.11557	241.45163	1312.55768	1661.19095	100.52657	1314.18106	1688.62457	209.51317	1372.33917	1549.54651	64.24963	1384.06906	1586.27228	114.61768	1225.55008	1497.18155	170.90282	1242.14172	1723.40652	170.05539	1155.25108	1762.8949	329.92748	1336.74408	1561.37634	345.44617	1173.21236	1447.76154	334.43527	1079.12064	1392.38403	380.36572	1006.34857	1322.53143	430.39494	843.5759	1303.92822	412.84382	887.60208	1244.02313	459.91161	857.63916	1228.57719	-17.75441	1353.55988	1643.76358	-72.73615	1126.09482	1585.98862	-105.25345	1030.81085	1642.14005	-94.15514	928.86063	1696.56036	-92.02065	854.0036	1824.57474	-111.11156	867.94449	1884.46716	274.70081	920.47554	1682.58591	1.76997	882.50221	1663.41248	225.65674	961.42746	1505.56961	46.04776	945.86472	1494.59106	286.8639	602.24857	1647.48657	250.40051	483.79082	1792.53418	-57.95569	911.1924	1857.61383	237.54747	269.86761	1810.7608	231.90159	86.45689	1769.88251	199.45604	35.8144	1700.78018	198.39745	43.74565	1900.09781	30.44538	626.24001	1503.8028	30.30551	464.06326	1597.02637	78.74934	302.3469	1458.27469	19.00482	217.43668	1215.12794	33.6183	72.84302	1204.30275	58.15494	251.41714	1134.10744
135	4.477	241.51098	1600.66284	1692.81937	112.86487	1607.72461	1718.6969	209.70367	1544.21341	1575.2269	88.05249	1552.86438	1607.33383	238.15289	1324.6344	1725.69168	94.87436	1327.91534	1744.75876	214.04108	1386.0994	1612.97897	66.16286	1397.13257	1642.18979	120.87802	1239.44168	1555.48828	164.65071	1253.66371	1783.19611	161.35559	1165.94788	1820.99442	335.24139	1348.01025	1633.25226	353.70388	1169.15314	1531.85257	338.13385	1071.32866	1484.18427	383.23181	987.70493	1427.54044	417.94224	822.24564	1433.58093	412.02702	856.44745	1365.52658	455.77446	814.98985	1361.18454	-19.6878	1365.9549	1696.48773	-74.38605	1134.92447	1639.82605	-102.2652	1037.98004	1688.30093	-93.0041	929.53125	1726.07681	-98.12401	831.23093	1834.55353	-112.22493	826.96312	1897.10861	270.24096	935.06264	1742.46826	-2.22442	893.58154	1717.87827	226.57789	976.856	1565.75211	48.02554	954.65347	1550.0972	287.32311	613.36109	1679.67499	250.50283	480.32463	1811.23459	-60.6437	878.992	1881.49979	239.00475	268.05531	1817.94693	231.68255	86.35583	1769.35455	199.62818	36.21484	1701.16241	197.78328	46.0048	1896.08109	31.04949	627.94086	1592.63596	26.00435	477.1677	1713.14224	73.27932	310.16792	1583.97095	23.69814	232.14214	1337.08435	2.9011	96.27625	1342.47498	80.33772	251.70519	1257.08336
136	4.51	237.95334	1613.77121	1757.54745	109.06301	1619.73679	1781.07895	209.61763	1562.54395	1637.89551	86.71273	1569.52301	1667.20093	233.93847	1339.52652	1786.30829	91.98616	1340.25665	1797.12875	217.35674	1399.1423	1671.61575	68.1293	1408.90091	1691.99219	128.80481	1252.22916	1608.05725	157.64857	1267.76161	1838.87833	152.68835	1180.80093	1877.93137	338.507	1361.33331	1701.20743	365.17502	1166.2355	1621.18027	343.68393	1065.66322	1581.02997	388.35243	970.88913	1543.35831	402.80903	807.71996	1577.49908	412.51457	828.69759	1504.7406	448.22971	779.04549	1515.68741	-20.9106	1378.18405	1741.27167	-67.91087	1147.54517	1680.80414	-98.07844	1048.46657	1731.57318	-91.98445	935.25009	1749.25735	-104.65727	815.74966	1833.21686	-112.83086	793.35487	1894.5491	269.99029	945.38589	1798.55865	-4.20749	910.89455	1774.84573	226.67986	989.79454	1622.94083	49.55286	969.51164	1607.1553	285.17956	623.95649	1707.27921	248.36344	479.01321	1824.61517	-62.63982	848.16071	1887.668	236.6276	267.56134	1823.58032	231.03933	87.29983	1770.37689	198.93158	37.50729	1701.35529	197.36864	45.91979	1896.72455	26.69457	639.17767	1680.08972	18.67161	502.10545	1822.12952	63.8514	322.61383	1711.9397	26.09075	228.46447	1470.07965	-16.5027	104.34229	1495.46066	92.34008	225.19413	1392.04605
